<?xml version="1.0" standalone="no"?>
<!DOCTYPE svg PUBLIC "-//W3C//DTD SVG 20010904//EN"
 "http://www.w3.org/TR/2001/REC-SVG-20010904/DTD/svg10.dtd">
<svg version="1.0" xmlns="http://www.w3.org/2000/svg"
 width="16.000000pt" height="16.000000pt" viewBox="0 0 16.000000 16.000000"
 preserveAspectRatio="xMidYMid meet">
<metadata>
Created by potrace 1.11, written by Peter Selinger 2001-2013
</metadata>
<g transform="translate(0.000000,16.000000) scale(0.003125,-0.003125)"
fill="#000000" stroke="none">
<path d="M2315 5109 c-637 -65 -1215 -355 -1647 -826 -621 -679 -828 -1645
-538 -2523 129 -393 335 -725 631 -1017 409 -404 894 -641 1484 -725 118 -17
512 -17 630 0 488 70 929 257 1290 549 122 99 300 277 397 398 237 296 430
706 502 1067 43 212 51 294 51 528 0 311 -34 524 -124 800 -126 383 -326 707
-614 999 -397 402 -883 648 -1457 736 -125 19 -477 28 -605 14z m320 -1228
c51 -23 91 -70 106 -124 9 -34 8 -55 -8 -119 -10 -43 -17 -78 -14 -78 4 0 40
9 81 20 41 11 81 20 88 20 10 0 12 -37 10 -167 l-3 -167 -155 -38 c-93 -23
-160 -45 -167 -55 -11 -14 -14 -14 -30 5 -13 15 -50 29 -128 47 -60 14 -127
30 -147 36 l-38 10 0 163 0 164 73 -19 c111 -29 106 -32 84 59 -16 64 -17 85
-8 119 22 80 101 143 181 143 19 0 53 -9 75 -19z m-672 -217 l157 -38 0 -163
0 -163 -22 5 c-13 3 -85 20 -161 39 l-138 33 -169 -42 c-93 -23 -172 -40 -175
-37 -3 3 -5 78 -5 166 l0 162 163 41 c89 23 169 40 177 39 8 -2 86 -20 173
-42z m1525 4 l172 -42 0 -163 c0 -90 -3 -163 -7 -163 -5 0 -77 18 -161 39
l-154 39 -171 -44 c-95 -24 -173 -44 -174 -44 -2 0 -3 76 -3 169 l0 169 158
40 c86 22 159 41 162 41 3 1 83 -18 178 -41z m-2130 -235 l-3 -167 -150 -38
c-82 -20 -156 -38 -162 -38 -10 0 -13 39 -13 165 l0 165 28 7 c15 3 83 21 152
39 69 18 131 33 138 33 10 1 12 -36 10 -166z m2585 121 l147 -36 0 -165 c0
-152 -1 -164 -17 -159 -10 3 -84 22 -165 42 l-148 36 0 165 c0 152 1 164 18
159 9 -3 83 -22 165 -42z m-1973 -324 l145 -36 3 -333 c2 -314 1 -332 -15
-327 -10 3 -48 13 -85 22 -38 9 -68 19 -68 23 0 3 9 39 20 80 11 41 20 83 20
94 0 43 -26 103 -60 137 -119 119 -329 33 -330 -135 0 -22 9 -71 20 -109 11
-38 18 -71 16 -74 -7 -6 -149 -42 -168 -42 -17 0 -18 15 -18 185 0 121 -4 185
-10 185 -10 0 -350 -83 -392 -96 -17 -5 -18 6 -18 140 l0 146 28 7 c571 144
721 180 742 175 14 -3 90 -22 170 -42z m1743 -51 l377 -94 0 -137 c0 -76 -3
-138 -7 -138 -5 0 -174 42 -378 93 l-370 93 -145 -38 c-80 -21 -157 -40 -172
-43 l-28 -7 0 144 0 144 163 41 c89 22 167 40 172 39 6 -2 180 -45 388 -97z
m-815 -151 l-3 -143 -162 -41 -162 -42 -168 42 -168 42 -3 137 c-2 106 0 137
10 137 7 0 80 -17 161 -38 l149 -37 161 41 c89 24 168 43 175 43 10 1 12 -31
10 -141z m597 -179 l165 -41 0 -140 c0 -128 -1 -139 -17 -134 -10 3 -82 21
-160 41 l-143 35 -160 -40 c-87 -22 -166 -40 -175 -40 -14 0 -15 18 -13 142
l3 142 145 37 c80 20 155 38 168 38 12 1 97 -18 187 -40z m-1638 -30 c30 -29
38 -71 19 -108 -20 -37 -44 -51 -89 -51 -71 0 -113 88 -71 148 32 46 97 51
141 11z m-501 -316 c-4 -5 -304 -82 -318 -83 -5 0 -8 64 -8 143 l0 143 163 40
162 40 3 -139 c1 -77 1 -142 -2 -144z m1542 -50 l-3 -337 -164 -41 -164 -41
-141 37 c-77 19 -153 39 -168 43 l-28 6 0 330 c0 182 3 330 8 330 4 0 76 -18
159 -39 l153 -39 167 43 c93 24 171 44 176 44 4 1 6 -151 5 -336z m995 296
c67 -16 139 -35 160 -40 l37 -10 0 -138 0 -138 -165 41 -165 41 0 137 c0 76 3
138 6 138 3 0 60 -14 127 -31z m-2173 -392 c25 -67 45 -126 45 -131 0 -8 -277
-85 -307 -86 -13 0 -9 278 3 286 14 8 177 52 199 53 10 0 29 -38 60 -122z
m400 -69 c0 -76 -2 -138 -6 -138 -10 0 -289 71 -292 75 -2 2 18 59 43 127 l47
125 104 -26 104 -25 0 -138z m1035 165 c-4 -10 -10 -43 -12 -73 -4 -45 2 -78
37 -185 23 -71 62 -181 86 -244 25 -63 43 -115 42 -116 -5 -4 -297 -75 -308
-75 -7 0 -10 113 -10 334 l0 334 78 20 c98 25 96 25 87 5z m211 2 c66 -27 78
-113 22 -160 -87 -73 -206 41 -137 129 19 25 49 44 72 45 4 1 23 -6 43 -14z
m222 -12 l72 -17 0 -332 0 -332 -151 38 c-83 21 -152 40 -153 42 -2 1 23 72
55 156 101 266 128 388 99 443 -13 23 -12 23 78 2z m-2228 -186 l0 -142 -167
-42 c-92 -23 -170 -40 -172 -38 -2 3 0 68 5 147 l9 142 145 37 c80 20 153 38
163 38 15 1 17 -12 17 -142z m2583 97 l147 -36 0 -139 c0 -77 -3 -139 -6 -139
-5 0 -203 49 -286 71 l-38 10 0 140 c0 129 1 140 18 135 9 -3 83 -22 165 -42z
m-1825 -451 l3 -141 -161 40 -160 40 -165 -41 c-90 -22 -169 -41 -175 -41 -7
0 -10 48 -8 142 l3 142 165 41 165 41 165 -41 165 -41 3 -141z m-758 -27 l0
-144 -165 -41 c-90 -22 -167 -41 -170 -41 -3 0 -5 64 -5 143 l0 143 163 41
c89 22 165 41 170 42 4 1 7 -64 7 -143z m1540 0 l0 -144 -165 -41 -165 -41
-170 42 -170 43 0 137 c0 104 3 138 13 138 6 0 79 -17 160 -38 l149 -37 161
41 c89 24 168 43 175 43 9 1 12 -34 12 -143z m1035 96 l150 -38 3 -137 c2
-106 0 -137 -10 -137 -7 0 -80 18 -163 38 l-150 38 -3 137 c-2 106 0 137 10
137 7 0 81 -18 163 -38z m-1980 -273 l165 -41 0 -165 c0 -152 -1 -164 -17
-159 -10 3 -82 21 -160 41 l-143 35 -162 -40 c-90 -23 -170 -43 -178 -45 -13
-4 -15 18 -12 165 l3 170 27 7 c15 3 83 21 152 39 69 18 133 33 143 33 9 1 92
-18 182 -40z m1718 -44 c188 -48 359 -90 380 -96 l37 -10 0 -163 0 -164 -377
95 -378 94 -162 -40 c-90 -23 -167 -41 -173 -41 -6 0 -10 59 -10 165 l0 165
28 7 c15 3 83 21 152 39 69 18 133 33 143 33 9 1 171 -37 360 -84z m-2317
-352 c-6 -6 -306 -82 -324 -83 -10 0 -12 37 -10 167 l3 167 165 41 165 41 3
-164 c1 -91 0 -167 -2 -169z m1051 282 l143 -35 160 40 c87 22 166 40 175 40
13 0 15 -23 15 -164 l0 -164 -168 -41 -167 -42 -168 42 -167 41 0 165 c0 152
1 164 18 159 9 -3 81 -21 159 -41z"/>
</g>
</svg>
